<svg t="1691114855672" class="icon" viewBox="0 0 1024 1024" version="1.1" xmlns="http://www.w3.org/2000/svg" p-id="9352" width="200" height="200"><path d="M1024 512c0-282.752-229.248-512-512-512S0 229.248 0 512c0 255.573333 187.221333 467.370667 432 505.770667V660.053333H301.994667V512h130.005333V399.189333c0-128.298667 76.458667-199.168 193.408-199.168 55.978667 0 114.602667 9.984 114.602667 9.984v125.994667H675.413333c-63.616 0-83.456 39.466667-83.456 80V512h141.994667l-22.698667 148.010667h-119.296v357.76C836.778667 979.370667 1024 767.573333 1024 512z" fill="#1877F2" p-id="9353"></path><path d="M711.296 660.010667L733.994667 512h-141.994667V416c0-40.490667 19.84-80 83.456-80h64.554667V210.005333s-58.581333-9.984-114.602667-9.984c-116.949333 0-193.408 70.826667-193.408 199.168V512H301.994667v148.010667h130.005333v357.76a517.546667 517.546667 0 0 0 160 0V660.053333h119.296z" fill="#FFFFFF" p-id="9354"></path></svg>