<?xml version="1.0" encoding="UTF-8"?>
<svg width="24px" height="25px" viewBox="0 0 24 25" version="1.1" xmlns="http://www.w3.org/2000/svg" xmlns:xlink="http://www.w3.org/1999/xlink">
    <title>pinterest</title>
    <defs>
        <polygon id="path-1" points="0 0 23.9975684 0 23.9975684 24 0 24"></polygon>
    </defs>
    <g id="1.7.0-首页、mockup详情页优化" stroke="none" stroke-width="1" fill="none" fill-rule="evenodd">
        <g id="底部信息" transform="translate(-1450.000000, -983.000000)">
            <g id="bottom" transform="translate(350.000000, 704.816900)">
                <g id="pinterest" transform="translate(1100.000000, 278.774322)">
                    <mask id="mask-2" fill="white">
                        <use xlink:href="#path-1"></use>
                    </mask>
                    <g id="Clip-2"></g>
                    <path d="M11.9978467,0 C5.37032882,0 -0.00175781465,5.37208664 -0.00175781465,11.9996045 C-0.00175781465,17.0829701 3.16093159,21.4252996 7.62469681,23.1735049 C7.51975527,22.2241092 7.42524344,20.7676132 7.66603475,19.7311178 C7.88426744,18.794437 9.07296029,13.7665598 9.07296029,13.7665598 C9.07296029,13.7665598 8.71372157,13.0481116 8.71372157,11.9854248 C8.71372157,10.3167606 9.68122276,9.07093881 10.8849156,9.07093881 C11.908579,9.07093881 12.4028472,9.83974834 12.4028472,10.7614584 C12.4028472,11.7910984 11.7473288,13.3300944 11.4091546,14.7565903 C11.1263808,15.9512597 12.0083643,16.9254992 13.1858657,16.9254992 C15.318798,16.9254992 16.9581652,14.6762581 16.9581652,11.4303655 C16.9581652,8.55721748 14.8935533,6.54876776 11.9461083,6.54876776 C8.53222721,6.54876776 6.5275568,9.10996229 6.5275568,11.7558542 C6.5275568,12.7870762 6.92502798,13.8933861 7.42076101,14.4940607 C7.51896426,14.6125081 7.53326115,14.7167758 7.50396424,14.8382994 C7.41323171,15.2178115 7.21079005,16.0329688 7.17106344,16.1994631 C7.11853408,16.41919 6.99701049,16.4657721 6.76984225,16.3600395 C5.27133456,15.6625094 4.33383342,13.4710711 4.33383342,11.7116745 C4.33383342,7.92654288 7.08396373,4.45037653 12.2626615,4.45037653 C16.4249908,4.45037653 19.6603658,7.41657155 19.6603658,11.3809416 C19.6603658,15.5162592 17.0527064,18.8446519 13.4340691,18.8446519 C12.2183645,18.8446519 11.0754627,18.2131863 10.6839388,17.4670233 C10.6839388,17.4670233 10.0824439,19.7581296 9.93619377,20.3191361 C9.66543172,21.3615788 8.93344841,22.668016 8.44445367,23.4653314 C9.56722848,23.8125584 10.7604038,24 11.9978467,24 C18.6246614,24 23.9975684,18.6279134 23.9975684,12.0003955 C23.9975684,5.37290695 18.6254817,0.000791016591 11.9978467,0.000791016591 L11.9978467,0 Z" id="Fill-1" fill="#4C4C4C" mask="url(#mask-2)"></path>
                </g>
            </g>
        </g>
    </g>
</svg>