<?xml version="1.0" encoding="UTF-8"?>
<svg width="24px" height="25px" viewBox="0 0 24 25" version="1.1" xmlns="http://www.w3.org/2000/svg" xmlns:xlink="http://www.w3.org/1999/xlink">
    <title>Youtube</title>
    <defs>
        <polygon id="path-1" points="0 0 24 0 24 24 0 24"></polygon>
    </defs>
    <g id="1.7.0-首页、mockup详情页优化" stroke="none" stroke-width="1" fill="none" fill-rule="evenodd">
        <g id="底部信息" transform="translate(-1546.000000, -983.000000)">
            <g id="bottom" transform="translate(350.000000, 704.816900)">
                <g id="Youtube" transform="translate(1196.000000, 278.362949)">
                    <mask id="mask-2" fill="white">
                        <use xlink:href="#path-1"></use>
                    </mask>
                    <g id="Clip-2"></g>
                    <path d="M23.4990324,6.21652173 C23.2231838,5.18257502 22.4087976,4.36818879 21.3774292,4.09220625 C19.5049202,3.58862685 11.9989117,3.58862685 11.9989117,3.58862685 C11.9989117,3.58862685 4.49293678,3.58862685 2.6205282,4.08959443 C1.586548,4.36544303 0.774807078,5.17982925 0.49895848,6.21377597 C-0.00200909394,8.08893031 -0.00200909394,12 -0.00200909394,12 C-0.00200909394,12 -0.00200909394,15.9110697 0.49895848,17.7836122 C0.774807078,18.8175924 1.58919331,19.6319452 2.6205282,19.9077937 C4.49293678,20.4113731 11.9989117,20.4113731 11.9989117,20.4113731 C11.9989117,20.4113731 19.5049202,20.4113731 21.3774292,19.9077937 C22.4114094,19.6319452 23.2231838,18.8175924 23.4990324,17.7836122 C24,15.9110697 24,12 24,12 C24,12 24,8.08893031 23.4990324,6.21652173 Z M9.61482042,15.5895477 L9.61482042,8.41045231 L15.8296846,11.9731786 L9.61482042,15.5895477 Z" id="Fill-1" fill="#4C4C4C" mask="url(#mask-2)"></path>
                </g>
            </g>
        </g>
    </g>
</svg>