<?xml version="1.0" standalone="no"?><!DOCTYPE svg PUBLIC "-//W3C//DTD SVG 1.1//EN" "http://www.w3.org/Graphics/SVG/1.1/DTD/svg11.dtd"><svg t="1687758223293" class="icon" viewBox="0 0 1024 1024" version="1.1" xmlns="http://www.w3.org/2000/svg" p-id="4163" xmlns:xlink="http://www.w3.org/1999/xlink" width="200" height="200"><path d="M768 213.888a128 128 0 0 1 128 128v340.224a128 128 0 0 1-128 128H256a128 128 0 0 1-128-128V341.888a128 128 0 0 1 128-128h512zM312.277333 296.96H195.626667l290.858666 245.418667 4.010667 2.986666a37.973333 37.973333 0 0 0 45.013333-2.986666c130.133333-109.824 227.754667-190.506667 292.864-245.418667H709.12l-198.186667 166.656L312.32 296.96z" fill="#D1D0D2" p-id="4164"></path></svg>