<?xml version="1.0" encoding="UTF-8"?>
<svg width="24px" height="25px" viewBox="0 0 24 25" version="1.1" xmlns="http://www.w3.org/2000/svg" xmlns:xlink="http://www.w3.org/1999/xlink">
    <title>in</title>
    <g id="1.7.0-首页、mockup详情页优化" stroke="none" stroke-width="1" fill="none" fill-rule="evenodd">
        <g id="底部信息" transform="translate(-1498.000000, -983.000000)" fill="#4C4C4C" fill-rule="nonzero">
            <g id="bottom" transform="translate(350.000000, 704.816900)">
                <g id="in" transform="translate(1148.000000, 278.774310)">
                    <path d="M20.4,19.2280117 L17.0457023,19.2280117 L17.0457023,13.3020858 C17.0457023,12.3740634 16.2965758,11.6249369 15.3685535,11.6249369 C14.4405311,11.6249369 13.6914046,12.3740634 13.6914046,13.3020858 L13.6914046,19.2280117 L10.3371069,19.2280117 L10.3371069,9.16511864 L13.6914046,9.16511864 L13.6914046,10.5068377 C14.2504542,9.56763436 15.4691824,8.94149879 16.4866527,8.94149879 C18.6445842,8.94149879 20.4,10.6969146 20.4,12.8548461 L20.4,19.2280117 Z M6.42375961,7.27553094 C5.30566038,7.27553094 4.4,6.36987056 4.4,5.25177133 C4.4,4.1336721 5.30566038,3.22801172 6.42375961,3.22801172 C7.54185884,3.22801172 8.44751922,4.1336721 8.44751922,5.25177133 C8.44751922,6.36987056 7.54185884,7.27553094 6.42375961,7.27553094 Z M8.10090846,19.2280117 L4.74661076,19.2280117 L4.74661076,9.16511864 L8.10090846,9.16511864 L8.10090846,19.2280117 Z M23.9,7.09961344 C23.8,5.79980344 23.6,5 23.3,4.20019344 C23.1952,3.78125344 23.0353,3.38867344 22.8062,3.00976344 C22.5981,2.66601344 22.333,2.33300344 22,2 C21.3,1.29980344 20.7,0.90039044 19.9,0.59960944 C19.1,0.29980444 18.3,0.09960944 17,0 L12,0 C8.69995,0 8.30005,0 7.09998,0.09960944 C5.80005,0.09960944 4.90002,0.29980444 4.09998,0.59960944 C3.40002,0.90039044 2.69995,1.29980344 2,2 C1.62842,2.37207344 1.34131,2.71484344 1.10889,3.07519344 C0.903442,3.39355344 0.740723,3.72461344 0.599976,4.09961344 C0.300049,4.89941344 0.0999756,5.79980344 0.0999756,7.09961344 C0.0817871,7.31836344 0.0668945,7.51074344 0.0546875,7.69922344 C0.0311279,8.06152344 0.0177002,8.40918344 0.0101318,8.90234344 C0,9.55468344 0,10.4629234 0,12.0000234 C0,15.2998234 0,15.6992234 0.0999756,16.8994234 C0.199951,18.1992234 0.400024,19.0000234 0.699951,19.7998234 C0.900024,20.5996234 1.30005,21.2998234 2,22.0000234 C2.69995,22.6992234 3.30005,23.0996234 4.09998,23.3994234 C4.90002,23.6992234 5.69995,23.8994234 7,24.0000234 L12,24.0000234 C13.6152,24.0000234 14.5356,24.0000234 15.1952,23.9883234 C15.8832,23.9765234 16.2874,23.9511234 16.9,23.8994234 C17.6245,23.8437234 18.1937,23.7568234 18.6942,23.6396234 C19.0918,23.5459234 19.4459,23.4326234 19.8,23.2998234 C19.9005,23.2627234 19.9994,23.2226234 20.0967,23.1816234 C20.1793,23.1465234 20.2609,23.1103234 20.3413,23.0722234 C20.9198,22.7978234 21.4395,22.4365234 21.9,21.8994234 C22.6,21.1992234 23,20.5996234 23.3,19.7998234 C23.6,19.0000234 23.8,18.1992234 23.9,16.8994234 C24,15.6992234 24,15.2998234 24,12.0000234 C24,8.70019344 24,8.29980344 23.9,7.09961344 L23.9,7.09961344 Z" id="形状"></path>
                </g>
            </g>
        </g>
    </g>
</svg>