<?xml version="1.0" encoding="UTF-8"?>
<svg width="24px" height="25px" viewBox="0 0 24 25" version="1.1" xmlns="http://www.w3.org/2000/svg" xmlns:xlink="http://www.w3.org/1999/xlink">
    <title>instagram</title>
    <g id="1.7.0-首页、mockup详情页优化" stroke="none" stroke-width="1" fill="none" fill-rule="evenodd">
        <g id="底部信息" transform="translate(-1402.000000, -983.000000)" fill="#4C4C4C">
            <g id="bottom" transform="translate(350.000000, 704.816900)">
                <g id="instagram" transform="translate(1052.000192, 278.774310)">
                    <path d="M16.9998079,0 C18.2998079,0.09960944 19.0998079,0.29980444 19.8998079,0.59960944 C20.6998079,0.90039044 21.2998079,1.29980344 21.9998079,2 C22.3328079,2.33300344 22.5979079,2.66601344 22.8060079,3.00976344 C23.0351079,3.38867344 23.1950079,3.78125344 23.2998079,4.20019344 C23.5998079,5 23.7998079,5.79980344 23.8998079,7.09961344 C23.9198079,7.33965144 23.9358079,7.54769744 23.9486079,7.75334536 L23.9603708,7.95928999 C23.9890523,8.51218976 23.9968745,9.11818507 23.9990079,10.3384643 L23.9990079,13.661465 C23.9958079,15.4916154 23.9798079,15.9392634 23.8998079,16.8994234 C23.7998079,18.1992234 23.5998079,19.0000234 23.2998079,19.7998234 C22.9998079,20.5996234 22.5998079,21.1992234 21.8998079,21.8994234 C21.4393079,22.4365234 20.9196079,22.7978234 20.3411079,23.0722234 C20.2607079,23.1103234 20.1791079,23.1465234 20.0965079,23.1816234 C19.9992079,23.2226234 19.9003079,23.2627234 19.7998079,23.2998234 C19.4457079,23.4326234 19.0916079,23.5459234 18.6940079,23.6396234 C18.1935079,23.7568234 17.6243079,23.8437234 16.8998079,23.8994234 C16.2872079,23.9511234 15.8830079,23.9765234 15.1950079,23.9883234 C14.7992479,23.9953434 14.3095999,23.9981514 13.6323199,23.9992746 L12.6098606,23.9999957 C12.4181759,24.0000234 12.2151679,24.0000234 11.9998079,24.0000234 L6.99980787,24.0000234 C5.69975787,23.8994234 4.89982787,23.6992234 4.09978787,23.3994234 C3.29985787,23.0996234 2.69975787,22.6992234 1.99980787,22.0000234 C1.29985787,21.2998234 0.899831871,20.5996234 0.699758871,19.7998234 C0.399831871,19.0000234 0.199758871,18.1992234 0.0997834711,16.8994234 C0.0764558311,16.6193768 0.0585713071,16.3829292 0.0448598387,16.1430618 L0.0340995019,15.935527 C0.00960547985,15.409113 0.00260718785,14.805309 0.000607675852,13.661465 L0.000837562133,10.2210349 C0.00201435194,9.67096211 0.00453604439,9.25025811 0.00993967105,8.90234344 C0.0175080711,8.40918344 0.0309357711,8.06152344 0.0544953711,7.69922344 C0.0667023711,7.51074344 0.0815949711,7.31836344 0.0997834711,7.09961344 C0.0997834711,5.79980344 0.299856871,4.89941344 0.599783871,4.09961344 C0.740530871,3.72461344 0.903249871,3.39355344 1.10869787,3.07519344 C1.34111787,2.71484344 1.62822787,2.37207344 1.99980787,2 C2.69975787,1.29980344 3.39982787,0.90039044 4.09978787,0.59960944 C4.89982787,0.29980444 5.79985787,0.09960944 7.09978787,0.09960944 C8.05984387,0.019921888 8.50779107,0.0039843776 10.3381933,0.00079687552 Z M11.9998079,6.00001172 C8.68609937,6.00001172 5.99980787,8.68630322 5.99980787,12.0000117 C5.99980787,15.3137202 8.68609937,18.0000117 11.9998079,18.0000117 C15.3135164,18.0000117 17.9998079,15.3137202 17.9998079,12.0000117 C17.9998079,8.68630322 15.3135164,6.00001172 11.9998079,6.00001172 Z M18.3998079,4.19824344 C17.5998079,4.19824344 16.9998079,4.79882344 16.9998079,5.59863344 C16.9998079,6.39941344 17.5998079,7.00000344 18.3998079,7.00000344 C19.1999079,7.00000344 19.7998079,6.39941344 19.7998079,5.59863344 C19.7998079,4.79882344 19.1999079,4.19824344 18.3998079,4.19824344 Z" id="形状结合"></path>
                    <circle id="椭圆形" cx="11.9996725" cy="12.0000117" r="4.5"></circle>
                </g>
            </g>
        </g>
    </g>
</svg>