<?xml version="1.0" standalone="no"?><!DOCTYPE svg PUBLIC "-//W3C//DTD SVG 1.1//EN" "http://www.w3.org/Graphics/SVG/1.1/DTD/svg11.dtd"><svg t="1687757540289" class="icon" viewBox="0 0 1024 1024" version="1.1" xmlns="http://www.w3.org/2000/svg" p-id="3990" width="200" height="200" xmlns:xlink="http://www.w3.org/1999/xlink"><path d="M793.6 448c38.4 0 68.266667 29.866667 68.266667 68.266667v311.466666c0 38.4-29.866667 68.266667-68.266667 68.266667h-554.666667c-38.4 0-68.266667-29.866667-68.266666-68.266667v-311.466666c0-38.4 29.866667-68.266667 68.266666-68.266667h554.666667z m-277.333333 136.533333c-17.066667 0-34.133333 17.066667-34.133334 34.133334v110.933333c0 17.066667 17.066667 29.866667 34.133334 29.866667s34.133333-17.066667 34.133333-34.133334v-106.666666c0-21.333333-17.066667-34.133333-34.133333-34.133334z" fill="#D1D0D2" p-id="3991"></path><path d="M686.933333 524.8c-25.6 0-42.666667-17.066667-42.666666-42.666667V341.333333c0-72.533333-59.733333-128-128-128S384 273.066667 384 341.333333v136.533334c0 25.6-17.066667 42.666667-42.666667 42.666666s-42.666667-17.066667-42.666666-42.666666V341.333333c0-119.466667 98.133333-213.333333 213.333333-213.333333 119.466667 0 213.333333 98.133333 213.333333 213.333333v136.533334c4.266667 25.6-12.8 46.933333-38.4 46.933333z" fill="#D1D0D2" p-id="3992"></path></svg>